<svg width="2179" height="2178" viewBox="0 0 2179 2178" fill="none" xmlns="http://www.w3.org/2000/svg">
<g clip-path="url(#clip0_5880_8770)">
<path d="M348.801 0H1829.8C2022.3 0 2178.3 156 2178.3 348.5V1829.5C2178.3 2022 2022.3 2178 1829.8 2178H348.801C156.301 2178 0.300781 2022 0.300781 1829.5V348.5C0.300781 156 156.401 0 348.801 0Z" fill="url(#paint0_linear_5880_8770)"/>
<g opacity="0.6">
<path d="M348.801 0H1829.8C2022.3 0 2178.3 156 2178.3 348.5V1829.5C2178.3 2022 2022.3 2178 1829.8 2178H348.801C156.301 2178 0.300781 2022 0.300781 1829.5V348.5C0.300781 156 156.401 0 348.801 0Z" fill="url(#paint1_linear_5880_8770)"/>
<path opacity="0.3" d="M449.201 1421.8L726.301 1296.1L449.201 1018.7L564.001 811.499L766.701 722.199L713.501 552.299L761.301 436.299L1033 709.999L1013.5 561.299L1073 412.199L1223.4 564.699L1360.4 552.299L1578 417.699L2717.6 1558.4L1628.9 2602L449.201 1421.8Z" fill="url(#paint2_linear_5880_8770)"/>
</g>
<path d="M1235.1 694.299C1143.3 747.299 1024.9 716.299 971.9 624.499L905.9 510.199L1073.1 413.799L1235.1 694.299Z" fill="#FFD161"/>
<path d="M487.8 1266.3C468.5 1267.9 447.5 1284.9 446 1308.5V1427.2H1066.5V1571C1066.5 1585.2 1059.1 1597.7 1047.8 1606.1C1046.9 1606.8 1045.9 1607.4 1044.9 1607.9L957.2 1657.7C952.9 1659.8 948.9 1662.6 945.5 1666.1C929.8 1682 926.8 1702.3 934.3 1718.7L998.8 1828.5L1197 1714.2C1215.7 1702.7 1227.1 1682.2 1227.1 1660.1V1427.2H1684.4C1707.5 1427.2 1730.2 1408.3 1730.2 1385V1266.3H487.8Z" fill="white"/>
<path d="M1497.9 981.299H743.001C726.601 979.599 701.201 1000.2 701.201 1023.5V1142.2H1066.9V1229.5L1497.9 981.299Z" fill="white"/>
<path d="M637.901 859.999H1537.9V1022H1681.9C1708.4 1022 1729.9 1000.5 1729.9 973.999V697.999H1263.9L1495 564.499L1524.8 616.199L1577.7 419.799L1381.1 367.199L1411 418.999L1159 564.499C1130.5 581.799 1097.1 591.699 1061.3 591.699C996.701 591.699 939.801 559.299 905.701 509.799L986.701 652.299C997.601 670.099 1009.7 685.299 1022.7 697.899H910.201L759.901 437.599L593.601 533.599L688.501 697.899H493.801C467.301 697.899 445.801 719.399 445.801 745.899V1021.9H637.801V859.999H637.901Z" fill="white"/>
</g>
<defs>
<linearGradient id="paint0_linear_5880_8770" x1="317.601" y1="-73.38" x2="1933.6" y2="2360.62" gradientUnits="userSpaceOnUse">
<stop stop-color="#51D06D"/>
<stop offset="1" stop-color="#005931"/>
</linearGradient>
<linearGradient id="paint1_linear_5880_8770" x1="317.601" y1="-73.38" x2="1933.6" y2="2360.62" gradientUnits="userSpaceOnUse">
<stop stop-color="#51D06D"/>
<stop offset="1" stop-color="#005931"/>
</linearGradient>
<linearGradient id="paint2_linear_5880_8770" x1="636.795" y1="549.862" x2="1771.73" y2="1684.79" gradientUnits="userSpaceOnUse">
<stop/>
<stop offset="1" stop-opacity="0"/>
</linearGradient>
<clipPath id="clip0_5880_8770">
<rect width="2178" height="2178" fill="white" transform="translate(0.150391)"/>
</clipPath>
</defs>
</svg>
