<svg width="32" height="32" viewBox="0 0 32 32" fill="none" xmlns="http://www.w3.org/2000/svg">
  <!-- 背景圆形 -->
  <circle cx="16" cy="16" r="16" fill="url(#bgGradient)"/>
  
  <!-- 左手 -->
  <path d="M8 14C8 12.8954 8.89543 12 10 12H12C13.1046 12 14 12.8954 14 14V18C14 19.1046 13.1046 20 12 20H10C8.89543 20 8 19.1046 8 18V14Z" fill="url(#leftHandGradient)"/>
  
  <!-- 左手袖子 -->
  <path d="M6 16C6 14.8954 6.89543 14 8 14H10C11.1046 14 12 14.8954 12 16V20C12 21.1046 11.1046 22 10 22H8C6.89543 22 6 21.1046 6 20V16Z" fill="url(#leftSleeveGradient)"/>
  
  <!-- 右手 -->
  <path d="M18 14C18 12.8954 18.8954 12 20 12H22C23.1046 12 24 12.8954 24 14V18C24 19.1046 23.1046 20 22 20H20C18.8954 20 18 19.1046 18 18V14Z" fill="url(#rightHandGradient)"/>
  
  <!-- 右手袖子 -->
  <path d="M20 16C20 14.8954 20.8954 14 22 14H24C25.1046 14 26 14.8954 26 16V20C26 21.1046 25.1046 22 24 22H22C20.8954 22 20 21.1046 20 20V16Z" fill="url(#rightSleeveGradient)"/>
  
  <!-- 握手连接部分 -->
  <path d="M14 16C14 14.8954 14.8954 14 16 14H16.5C17.6046 14 18.5 14.8954 18.5 16V18C18.5 19.1046 17.6046 20 16.5 20H16C14.8954 20 14 19.1046 14 18V16Z" fill="url(#connectionGradient)"/>
  
  <!-- 渐变定义 -->
  <defs>
    <linearGradient id="bgGradient" x1="0%" y1="0%" x2="100%" y2="100%">
      <stop offset="0%" style="stop-color:#1890ff;stop-opacity:1" />
      <stop offset="100%" style="stop-color:#096dd9;stop-opacity:1" />
    </linearGradient>
    
    <linearGradient id="leftHandGradient" x1="0%" y1="0%" x2="100%" y2="100%">
      <stop offset="0%" style="stop-color:#91d5ff;stop-opacity:1" />
      <stop offset="100%" style="stop-color:#69c0ff;stop-opacity:1" />
    </linearGradient>
    
    <linearGradient id="leftSleeveGradient" x1="0%" y1="0%" x2="100%" y2="100%">
      <stop offset="0%" style="stop-color:#69c0ff;stop-opacity:1" />
      <stop offset="100%" style="stop-color:#40a9ff;stop-opacity:1" />
    </linearGradient>
    
    <linearGradient id="rightHandGradient" x1="0%" y1="0%" x2="100%" y2="100%">
      <stop offset="0%" style="stop-color:#1890ff;stop-opacity:1" />
      <stop offset="100%" style="stop-color:#096dd9;stop-opacity:1" />
    </linearGradient>
    
    <linearGradient id="rightSleeveGradient" x1="0%" y1="0%" x2="100%" y2="100%">
      <stop offset="0%" style="stop-color:#096dd9;stop-opacity:1" />
      <stop offset="100%" style="stop-color:#0050b3;stop-opacity:1" />
    </linearGradient>
    
    <linearGradient id="connectionGradient" x1="0%" y1="0%" x2="100%" y2="100%">
      <stop offset="0%" style="stop-color:#40a9ff;stop-opacity:1" />
      <stop offset="100%" style="stop-color:#1890ff;stop-opacity:1" />
    </linearGradient>
  </defs>
</svg>
